<svg width="48" height="48" viewBox="0 0 48 48" fill="none" xmlns="http://www.w3.org/2000/svg">
<circle cx="24" cy="24" r="24" fill="black"/>
<path d="M24 8C19.7562 8 15.6864 9.68624 12.6864 12.6864C9.6864 15.6866 8 19.7565 8 24C8 28.2435 9.68624 32.3136 12.6864 35.3136C15.6866 38.3136 19.7565 40 24 40C28.2435 40 32.3136 38.3138 35.3136 35.3136C38.3136 32.3134 40 28.2435 40 24C40 19.7565 38.3138 15.6864 35.3136 12.6864C32.3134 9.6864 28.2435 8 24 8ZM24 38C20.2874 38 16.7264 36.525 14.0998 33.9002C11.4748 31.2739 10 27.7126 10 24C10 20.2874 11.475 16.7264 14.0998 14.0998C16.7261 11.4748 20.2874 10 24 10C27.7126 10 31.2736 11.475 33.9002 14.0998C36.5252 16.7261 38 20.2874 38 24C38 27.7126 36.525 31.2736 33.9002 33.9002C31.2739 36.5252 27.7126 38 24 38Z" fill="#FCFCFA"/>
<path d="M24 20C22.3825 20 20.9238 20.975 20.305 22.4687C19.685 23.9637 20.0275 25.6851 21.1712 26.8287C22.315 27.9725 24.0362 28.315 25.5312 27.695C27.025 27.0762 27.9999 25.6175 27.9999 23.9999C27.9999 22.9387 27.5787 21.9212 26.8287 21.1712C26.0787 20.4212 25.0613 20 24 20ZM24 26C23.1913 26 22.4613 25.5125 22.1525 24.765C21.8425 24.0175 22.0138 23.1575 22.5863 22.5862C23.1575 22.0137 24.0175 21.8425 24.765 22.1525C25.5125 22.4612 26 23.1912 26 24C26 24.53 25.7888 25.0387 25.4138 25.4137C25.0388 25.7887 24.53 26 24 26Z" fill="#FCFCFA"/>
<path d="M24 14C26.6525 13.9938 29.1962 15.0538 31.0598 16.94L32.4998 15.5C30.2461 13.2475 27.1862 11.9874 24 11.9998V14Z" fill="#FCFCFA"/>
<path d="M21 14C21.405 14 21.7687 13.7562 21.9237 13.3825C22.0787 13.0087 21.9925 12.5788 21.7075 12.2925C21.4212 12.0075 20.9912 11.9212 20.6175 12.0763C20.2437 12.2313 20 12.595 20 13C20 13.265 20.105 13.52 20.2925 13.7075C20.48 13.895 20.735 14 21 14Z" fill="#FCFCFA"/>
</svg>
