<svg width="64" height="64" viewBox="0 0 64 64" fill="none" xmlns="http://www.w3.org/2000/svg">
<circle cx="32" cy="32" r="32" fill="#D7D7D7"/>
<path fill-rule="evenodd" clip-rule="evenodd" d="M30.6949 7.25254C18.0557 7.90882 7.90876 18.0557 7.25002 30.6974L3.3051 30.695C2.58472 30.695 2 31.2797 2 32.0001C2 32.7205 2.5847 33.3052 3.3051 33.3052H7.25248C7.90629 45.9443 18.0538 56.0913 30.6949 56.7475V60.6949C30.6949 61.4153 31.2796 62 32 62C32.7204 62 33.3051 61.4153 33.3051 60.6949V56.7475C45.9443 56.0912 56.0912 45.9443 56.75 33.3026H60.6974C61.4153 33.3051 62 32.7204 62 32C62 31.2796 61.4153 30.6949 60.6949 30.6949H56.7475C56.0912 18.0557 45.9443 7.90875 33.3026 7.25001L33.3051 3.3051C33.3051 2.58472 32.7204 2 32 2C31.2796 2 30.6949 2.5847 30.6949 3.3051L30.6949 7.25254ZM32 15.0437C22.6425 15.0437 15.0433 22.6423 15.0433 32.0004C15.0433 41.3585 22.6419 48.957 32 48.957C41.3582 48.957 48.9567 41.3585 48.9567 32.0004C48.9567 22.6423 41.3582 15.0437 32 15.0437ZM32 17.6514C39.9194 17.6514 46.3489 24.0809 46.3489 32.0003C46.3489 39.9197 39.9194 46.3492 32 46.3492C24.0806 46.3492 17.6511 39.9197 17.6511 32.0003C17.6511 24.0809 24.0806 17.6514 32 17.6514ZM32 25.4799C28.4005 25.4799 25.4796 28.4009 25.4796 32.0003C25.4796 35.5997 28.4007 38.5208 32 38.5208C35.5994 38.5208 38.5205 35.5997 38.5205 32.0003C38.5205 28.4009 35.5994 25.4799 32 25.4799ZM32 28.0876C34.1612 28.0876 35.9129 29.8417 35.9129 32.0004C35.9129 34.1617 34.1612 35.9133 32 35.9133C29.8388 35.9133 28.0872 34.1617 28.0872 32.0004C28.0872 29.8392 29.8388 28.0876 32 28.0876Z" fill="black"/>
</svg>
