<svg width="48" height="48" viewBox="0 0 48 48" fill="none" xmlns="http://www.w3.org/2000/svg">
<circle cx="24" cy="24" r="24" fill="black"/>
<path fill-rule="evenodd" clip-rule="evenodd" d="M21.0263 21.1081C21.0263 21.7996 20.4668 22.3591 19.7815 22.3591C19.09 22.3591 18.5305 21.7996 18.5305 21.1081C18.5305 19.5992 19.1403 18.235 20.1273 17.2479C21.1143 16.2609 22.4786 15.6511 23.9874 15.6511C25.4963 15.6511 26.8605 16.2609 27.8475 17.2479C28.8346 18.235 29.4444 19.5992 29.4444 21.1081C29.4444 22.6169 28.8346 23.9811 27.8475 24.9682C27.1434 25.6723 26.2444 26.1878 25.2385 26.4204V26.9611C25.2385 27.6527 24.679 28.2122 23.9874 28.2122C23.2959 28.2122 22.7363 27.6527 22.7363 26.9611V25.3139C22.7363 24.6287 23.2959 24.0692 23.9874 24.0692C24.8047 24.0692 25.5466 23.736 26.0809 23.2016C26.6153 22.6672 26.9485 21.9253 26.9485 21.1081C26.9485 20.2908 26.6153 19.5489 26.0809 19.0145C25.5466 18.4802 24.8047 18.147 23.9874 18.147C23.1701 18.147 22.4283 18.4802 21.8939 19.0145C21.3595 19.5489 21.0263 20.2908 21.0263 21.1081ZM23.8617 32.3426C23.1701 32.3426 22.6106 31.7894 22.6106 31.0978C22.6106 30.4063 23.1701 29.8468 23.8617 29.8468H24.1383C24.8299 29.8468 25.3894 30.4063 25.3894 31.0978C25.3894 31.7894 24.8299 32.3426 24.1383 32.3426H23.8617ZM24 37.4978C27.7281 37.4978 31.1041 35.989 33.5434 33.5434C35.989 31.1041 37.4978 27.7281 37.4978 24C37.4978 20.2719 35.989 16.8959 33.5434 14.4503C31.1041 12.011 27.7281 10.4959 24 10.4959C20.2719 10.4959 16.8959 12.011 14.4503 14.4503C12.011 16.8959 10.4959 20.2719 10.4959 24C10.4959 27.7281 12.011 31.1041 14.4503 33.5434C16.8959 35.989 20.2719 37.4978 24 37.4978ZM35.31 35.31C32.4181 38.2083 28.4134 40 24 40C19.5804 40 15.5819 38.2083 12.6837 35.31C9.79175 32.4181 8 28.4134 8 24C8 19.5804 9.79175 15.5819 12.6837 12.6837C15.5819 9.79175 19.5804 8 24 8C28.4134 8 32.4181 9.79175 35.31 12.6837C38.2083 15.5819 40 19.5804 40 24C40 28.4134 38.2083 32.4181 35.31 35.31Z" fill="#E9E9E9"/>
</svg>
