<svg width="76" height="87" viewBox="0 0 76 87" fill="none" xmlns="http://www.w3.org/2000/svg">
<path d="M3.344 65.0392L4.784 67.4392L6.128 65.0392H8.912L10.256 67.4392L8.912 69.8392H11.696L13.04 72.2392L14.48 69.8392H17.168L15.824 67.4392L17.168 65.0392H19.952L21.392 67.4392L22.736 65.0392H25.52L26.96 67.4392L25.52 69.8392H28.304L29.648 72.2392L28.304 74.6392H25.52L26.96 77.0392L25.52 79.4392H28.304L29.648 81.8392L31.088 79.4392H33.872L35.216 81.8392L33.872 84.2392H36.656L38 86.6392L39.344 84.2392H42.128L40.784 81.8392L42.128 79.4392H44.912L46.352 81.8392L47.696 79.4392H50.48L49.04 77.0392L50.48 74.6392H47.696L46.352 72.2392L47.696 69.8392H50.48L49.04 67.4392L50.48 65.0392H53.264L54.608 67.4392L56.048 65.0392H58.832L60.176 67.4392L58.832 69.8392H61.52L62.96 72.2392L64.304 69.8392H67.088L65.744 67.4392L67.088 65.0392H69.872L71.216 67.4392L72.656 65.0392H75.44L74 62.6392L75.44 60.2392H72.656L71.216 57.8392L72.656 55.4392H75.44L74 53.0392L75.44 50.6392H72.656L71.216 48.2392L69.872 50.6392H67.088L65.744 48.2392L67.088 45.8392H64.304L62.96 43.4392L64.304 41.0392H67.088L65.744 38.6392L67.088 36.2392H69.872L71.216 38.6392L72.656 36.2392H75.44L74 33.8392L75.44 31.4392H72.656L71.216 29.0392L72.656 26.6392H75.44L74 24.2392L75.44 21.8392H72.656L71.216 19.4392L69.872 21.8392H67.088L65.744 19.4392L67.088 17.0392H64.304L62.96 14.6392L61.52 17.0392H58.832L60.176 19.4392L58.832 21.8392H56.048L54.608 19.4392L53.264 21.8392H50.48L49.04 19.4392L50.48 17.0392H47.696L46.352 14.6392L47.696 12.2392H50.48L49.04 9.8392L50.48 7.4392H47.696L46.352 5.0392L44.912 7.4392H42.128L40.784 5.0392L42.128 2.6392H39.344L38 0.239197L36.656 2.6392H33.872L35.216 5.0392L33.872 7.4392H31.088L29.648 5.0392L28.304 7.4392H25.52L26.96 9.8392L25.52 12.2392H28.304L29.648 14.6392L28.304 17.0392H25.52L26.96 19.4392L25.52 21.8392H22.736L21.392 19.4392L19.952 21.8392H17.168L15.824 19.4392L17.168 17.0392H14.48L13.04 14.6392L11.696 17.0392H8.912L10.256 19.4392L8.912 21.8392H6.128L4.784 19.4392L3.344 21.8392H0.560001L2 24.2392L0.560001 26.6392H3.344L4.784 29.0392L3.344 31.4392H0.560001L2 33.8392L0.560001 36.2392H3.344L4.784 38.6392L6.128 36.2392H8.912L10.256 38.6392L8.912 41.0392H11.696L13.04 43.4392L11.696 45.8392H8.912L10.256 48.2392L8.912 50.6392H6.128L4.784 48.2392L3.344 50.6392H0.560001L2 53.0392L0.560001 55.4392H3.344L4.784 57.8392L3.344 60.2392H0.560001L2 62.6392L0.560001 65.0392H3.344Z" fill="black"/>
</svg>
