<svg width="84" height="90" viewBox="0 0 84 90" fill="none" xmlns="http://www.w3.org/2000/svg">
<path d="M83.4 25.6C82.9 26.1 82 26.1 81.5 25.6C81.4 25.5 81.4 25.5 81.3 25.4C81.1 27 80.4 28.4 79.3 29.6H79.4C80.1 29.6 80.7 30.2 80.7 30.9C80.7 31.6 80.1 32.2 79.4 32.2C78.7 32.2 78.1 31.6 78.1 30.9C78.1 30.8 78.1 30.7 78.1 30.6C76.8 31.6 75.1 32.2 73.3 32.2C69.8 32.2 66.8 29.9 65.7 26.8C65.1 31.9 62.9 36.5 59.6 40.1C59.9 40 60.3 40 60.6 40C62.7 40 64.5 41.7 64.5 43.8C64.5 45.9 62.8 47.6 60.6 47.6C58.4 47.6 56.7 45.9 56.7 43.8C56.7 43.4 56.8 42.9 56.9 42.5C53.4 45.3 49 47.2 44.3 47.6C47.5 48.1 50.4 49.6 52.6 51.7C52.6 51.6 52.5 51.4 52.5 51.3C52.5 50.6 53.1 50 53.8 50C54.5 50 55.1 50.6 55.1 51.3C55.1 52 54.5 52.6 53.8 52.6C53.6 52.6 53.5 52.6 53.3 52.5C55.7 55.2 57.2 58.8 57.2 62.7C57.2 66.8 55.6 70.5 52.9 73.3C53 73.3 53.2 73.2 53.3 73.2C54 73.2 54.6 73.8 54.6 74.5C54.6 75.2 54 75.8 53.3 75.8C52.6 75.8 52 75.2 52 74.5C52 74.3 52 74.2 52.1 74C49.7 76.1 46.6 77.5 43.2 77.8C44.5 78.3 45.5 79.6 45.5 81.1C45.5 82.9 44.2 84.4 42.5 84.6C43.1 84.8 43.5 85.3 43.5 86C43.5 86.8 42.9 87.4 42.1 87.5C42.6 87.5 43.1 88 43.1 88.5C43.1 89.1 42.6 89.6 42 89.6C41.4 89.6 40.9 89.1 40.9 88.5C40.9 87.9 41.3 87.5 41.9 87.5C41.1 87.5 40.5 86.8 40.5 86C40.5 85.4 40.9 84.8 41.5 84.6C39.8 84.3 38.5 82.9 38.5 81.1C38.5 79.6 39.4 78.3 40.8 77.8C37.2 77.5 33.9 75.9 31.4 73.6C31.4 73.7 31.5 73.9 31.5 74C31.5 74.7 30.9 75.3 30.2 75.3C29.5 75.3 28.9 74.7 28.9 74C28.9 73.3 29.5 72.7 30.2 72.7C30.4 72.7 30.5 72.7 30.7 72.8C28.3 70.1 26.8 66.5 26.8 62.6C26.8 58.5 28.4 54.8 31.1 52C31 52 30.8 52.1 30.7 52.1C30 52.1 29.4 51.5 29.4 50.8C29.4 50.1 30 49.5 30.7 49.5C31.4 49.5 32 50.1 32 50.8C32 51 32 51.1 31.9 51.3C34.1 49.4 36.8 48.1 39.8 47.6C34.5 47.1 29.7 44.9 26 41.5C26.1 41.8 26.1 42.2 26.1 42.5C26.1 44.6 24.4 46.3 22.2 46.3C20 46.3 18.3 44.6 18.3 42.5C18.3 40.4 20 38.7 22.2 38.7C22.6 38.7 23.1 38.8 23.5 38.9C20.7 35.4 18.8 31.2 18.3 26.5C17.2 29.6 14.2 31.8 10.7 31.8C8.6 31.8 6.7 31 5.3 29.7V29.8C5.3 30.5 4.7 31.1 4 31.1C3.3 31.1 2.7 30.5 2.7 29.8C2.7 29.1 3.3 28.5 4 28.5C4.1 28.5 4.2 28.5 4.3 28.5C3.4 27.3 2.8 25.8 2.7 24.2L2.6 24.3C2.1 24.8 1.2 24.8 0.700001 24.3C0.200001 23.8 0.200001 22.9 0.700001 22.4C1.2 21.9 2.1 21.9 2.6 22.4C2.7 22.5 2.7 22.5 2.8 22.6C3 21 3.7 19.6 4.8 18.4H4.7C4 18.4 3.4 17.8 3.4 17.1C3.4 16.4 4 15.8 4.7 15.8C5.4 15.8 6 16.4 6 17.1C6 17.2 6 17.3 6 17.4C7.3 16.4 9 15.8 10.8 15.8C14.3 15.8 17.3 18.1 18.4 21.2C19 16.1 21.2 11.5 24.5 7.9C24.2 8 23.8 8 23.5 8C21.4 8 19.6 6.3 19.6 4.2C19.6 2.1 21.3 0.399997 23.5 0.399997C25.7 0.399997 27.4 2.1 27.4 4.2C27.4 4.6 27.3 5.1 27.2 5.5C31.3 2.2 36.5 0.199997 42.2 0.199997C48.4 0.199997 54.1 2.6 58.3 6.4C58.2 6.1 58.2 5.7 58.2 5.4C58.2 3.3 59.9 1.6 62.1 1.6C64.3 1.6 66 3.3 66 5.4C66 7.5 64.3 9.2 62.1 9.2C61.7 9.2 61.2 9.1 60.8 9C63.6 12.5 65.5 16.7 66 21.4C67.1 18.3 70.1 16.1 73.6 16.1C75.7 16.1 77.6 16.9 79 18.2V18.1C79 17.4 79.6 16.8 80.3 16.8C81 16.8 81.6 17.4 81.6 18.1C81.6 18.8 81 19.4 80.3 19.4C80.2 19.4 80.1 19.4 80 19.4C80.9 20.6 81.5 22.1 81.6 23.7L81.7 23.6C82.2 23.1 83.1 23.1 83.6 23.6C83.9 24.2 83.9 25 83.4 25.6Z" fill="black"/>
</svg>
