<svg width="65" height="97" viewBox="0 0 65 97" fill="none" xmlns="http://www.w3.org/2000/svg">
<path fill-rule="evenodd" clip-rule="evenodd" d="M49.7516 16.3846C38.9235 11.6385 36.0349 3.15336 35.9266 2.82037C35.9025 2.75217 35.8544 2.70001 35.8263 2.63181C35.7501 2.4272 35.6418 2.25469 35.5334 2.07014C35.389 1.81338 35.2446 1.57267 35.056 1.36004C34.9236 1.2116 34.7752 1.09525 34.6227 0.966869C34.3901 0.774298 34.1533 0.605798 33.8846 0.469393C33.712 0.381131 33.5395 0.31694 33.355 0.25275C33.0581 0.156464 32.7612 0.0962857 32.4443 0.0722143C32.3199 0.0601786 32.2196 0 32.0952 0C31.999 0 31.9187 0.0481429 31.8264 0.0561667C31.7141 0.0601786 31.6058 0.0280833 31.4894 0.044131C31.2969 0.0762262 31.1324 0.176524 30.9478 0.23269C30.7432 0.292869 30.5426 0.345024 30.3541 0.437298C30.0853 0.565679 29.8566 0.742202 29.6279 0.92675C29.4715 1.04711 29.311 1.15142 29.1746 1.29585C28.9579 1.52854 28.8015 1.80536 28.641 2.08619C28.5567 2.23864 28.4484 2.36301 28.3802 2.52349C28.1957 2.98887 28.0833 3.48635 28.0833 4.0119V28.0833V60.1786H16.0476C6.89647 60.1786 0 68.09 0 78.5772C0 88.3421 7.94357 96.2857 17.7085 96.2857H20.0515C29.8004 96.2857 36.1071 89.987 36.1071 80.2381V64.1905V32.4804C46.9914 34.386 57.4746 43.0879 57.5909 43.1882C58.3291 43.806 59.2478 44.131 60.1786 44.131C60.7162 44.131 61.2578 44.0226 61.7713 43.798C63.1674 43.1922 64.1022 41.8522 64.1865 40.3317C64.2186 39.6296 64.9247 23.0364 49.7516 16.3846Z" fill="black"/>
</svg>
