<svg width="48" height="48" viewBox="0 0 48 48" fill="none" xmlns="http://www.w3.org/2000/svg">
<circle cx="24" cy="24" r="24" fill="black"/>
<path d="M34.2967 27.051V37.4798V37.478C34.3037 38.6742 33.8409 39.8243 33.0098 40.6722C32.1788 41.5218 31.048 42 29.868 42H21.5226C20.3654 42.0018 19.2539 41.5396 18.4281 40.7166L14.7762 37.0763C13.7926 36.0986 13.6278 34.5504 14.3852 33.3826C15.1443 32.2165 16.6118 31.7579 17.8864 32.2876C17.9407 32.3214 18.0091 32.3214 18.0635 32.2876C18.1091 32.261 18.1354 32.2094 18.1336 32.1561V17.7652C18.1336 16.4872 19.1557 15.4509 20.4145 15.4509C21.6751 15.4509 22.6972 16.4872 22.6972 17.7652V25.3818C23.1917 24.9001 23.8736 24.669 24.5539 24.7543C25.2359 24.8397 25.8425 25.229 26.2072 25.8173C26.6245 25.1454 27.352 24.7366 28.1357 24.7366C28.9194 24.7366 29.6488 25.1454 30.0643 25.8173C30.6078 24.9499 31.651 24.5499 32.624 24.8361C33.5988 25.1205 34.2703 26.0235 34.2721 27.0509L34.2967 27.051ZM37.1019 12.3562C35.9289 12.3562 34.8717 13.0725 34.4229 14.171C33.9741 15.2678 34.223 16.5334 35.0523 17.3724C35.8798 18.2132 37.1281 18.4655 38.2099 18.0105C39.2934 17.5555 39.9999 16.4836 39.9999 15.2944C40.0052 14.5087 39.7001 13.7533 39.1514 13.1969C38.6026 12.6405 37.8575 12.3295 37.0826 12.3331L37.1019 12.3562ZM6.89899 24.3917C5.72432 24.3917 4.66536 25.1098 4.21829 26.2101C3.77122 27.3122 4.02368 28.5778 4.85822 29.4168C5.69102 30.2558 6.9428 30.5011 8.02456 30.0389C9.10632 29.5768 9.80761 28.4978 9.79706 27.3069C9.78479 25.6929 8.49089 24.3917 6.89899 24.3917ZM25.4746 14.6742C25.4763 12.8824 24.5594 11.2205 23.0534 10.2837C21.5456 9.34874 19.6679 9.27589 18.0952 10.0935C16.5225 10.9094 15.4829 12.4967 15.3514 14.2831C15.2199 16.0696 16.0159 17.7973 17.4518 18.8409V17.7655C17.4518 16.0946 18.786 14.7401 20.434 14.7401C22.082 14.7401 23.4162 16.0946 23.4162 17.7655V18.7982C24.7083 17.8312 25.4711 16.3024 25.4746 14.6742ZM25.8059 21.3916C27.6486 19.87 28.7829 17.6392 28.9372 15.2344C29.0932 12.8312 28.2535 10.4687 26.623 8.71809C24.9907 6.96543 22.7133 5.98249 20.3376 6.00024C17.962 6.01979 15.7003 7.04011 14.0962 8.81761C12.492 10.5951 11.689 12.9699 11.8819 15.3712C12.0748 17.7726 13.2424 19.984 15.1096 21.477C15.171 21.525 15.2463 21.5517 15.3235 21.5517C15.9739 22.0387 16.6858 22.4315 17.4414 22.7177V19.6888C15.2131 18.345 14.1418 15.6609 14.8221 13.1243C15.5006 10.5878 17.7658 8.82096 20.357 8.80494C22.95 8.78717 25.2362 10.5256 25.9463 13.0532C26.658 15.5809 25.6184 18.279 23.4076 19.6514V22.6945C24.186 22.3959 24.9171 21.9817 25.5763 21.4662C25.6605 21.4698 25.7411 21.4431 25.8059 21.3916ZM29.649 14.9163C29.649 15.1598 29.635 15.3962 29.6069 15.6273H33.5009C33.4938 15.5082 33.4938 15.3909 33.5009 15.2718C33.4938 15.1527 33.4938 15.0354 33.5009 14.9163H29.649ZM9.27812 24.5951C9.44994 24.7551 9.60598 24.9293 9.74625 25.1177L13.7436 21.184C13.5805 21.0134 13.421 20.8374 13.2755 20.6579L9.27812 24.5951Z" fill="white"/>
</svg>
