<svg width="48" height="48" viewBox="0 0 48 48" fill="none" xmlns="http://www.w3.org/2000/svg">
<circle cx="24" cy="24" r="24" fill="black"/>
<path d="M24 26.6667C22.8889 26.6667 21.9444 26.2778 21.1667 25.5C20.3889 24.7222 20 23.7778 20 22.6667V14.6667C20 13.5556 20.3889 12.6111 21.1667 11.8333C21.9444 11.0556 22.8889 10.6667 24 10.6667C25.1111 10.6667 26.0555 11.0556 26.8333 11.8333C27.6111 12.6111 28 13.5556 28 14.6667V22.6667C28 23.7778 27.6111 24.7222 26.8333 25.5C26.0555 26.2778 25.1111 26.6667 24 26.6667ZM22.6667 36V31.9C20.3555 31.5889 18.4444 30.5556 16.9333 28.8C15.4222 27.0444 14.6667 25 14.6667 22.6667H17.3333C17.3333 24.5111 17.9833 26.0833 19.2833 27.3833C20.5833 28.6833 22.1555 29.3333 24 29.3333C25.8444 29.3333 27.4167 28.6833 28.7167 27.3833C30.0167 26.0833 30.6667 24.5111 30.6667 22.6667H33.3333C33.3333 25 32.5778 27.0444 31.0667 28.8C29.5555 30.5556 27.6444 31.5889 25.3333 31.9V36H22.6667Z" fill="#FEF7FF"/>
</svg>
