<svg width="64" height="64" viewBox="0 0 64 64" fill="none" xmlns="http://www.w3.org/2000/svg">
<circle cx="32" cy="32" r="31.7647" fill="#AEAEAE"/>
<path d="M39.2704 44.6481C38.736 44.2292 38.1189 43.9283 37.4598 43.7653C36.8723 43.6029 36.3119 43.355 35.7964 43.0296C35.4744 42.804 35.1995 42.5175 34.9874 42.1864C34.9143 42.0487 34.8592 41.9023 34.8233 41.7507C34.7822 41.2309 34.9177 40.7124 35.208 40.2793C35.5468 39.731 35.7179 39.0957 35.7003 38.4514C36.249 38.7883 36.8842 38.9574 37.5277 38.9381C38.0475 38.9032 38.5638 39.0448 38.9931 39.3399C39.1092 39.4415 39.2118 39.5575 39.2986 39.6851C39.4794 40.0375 39.589 40.4221 39.6211 40.8169C39.6456 41.4248 39.5808 42.033 39.4288 42.6222C39.2421 43.2747 39.1959 43.9594 39.293 44.6311L39.2364 44.5746L39.2704 44.6481ZM31.9944 46.5892C31.7431 45.9488 31.3572 45.3698 30.8628 44.8915C30.4367 44.4578 30.0764 43.9639 29.7935 43.4258C29.6245 43.0709 29.5264 42.6864 29.5049 42.2939C29.5163 42.1417 29.5467 41.9915 29.5954 41.8469C29.82 41.3764 30.1968 40.9955 30.6648 40.766C31.2258 40.4639 31.6875 40.006 31.9944 39.4474C32.3016 40.0138 32.7677 40.478 33.3353 40.7829C33.8032 41.0125 34.18 41.3934 34.4046 41.8638C34.4534 42.0085 34.4838 42.1587 34.4951 42.3109C34.4736 42.7034 34.3756 43.0879 34.2066 43.4427C33.9211 43.9856 33.5569 44.4834 33.1259 44.9198C32.6349 45.3899 32.2492 45.9589 31.9944 46.5892ZM33.4937 40.5453C32.8542 40.2279 32.3661 39.6705 32.1358 38.9947L31.9944 38.4854L31.8586 38.9947C31.6283 39.6705 31.1402 40.2279 30.5007 40.5453C30.1049 40.7652 29.7598 41.066 29.4879 41.4281V41.3658L29.4597 41.4168C29.4048 40.9684 29.2564 40.5365 29.024 40.1491C28.6211 39.5583 28.4685 38.8319 28.5997 38.1288L28.7354 37.6195L28.362 37.9874C27.8251 38.4592 27.1234 38.6992 26.4101 38.6551C25.9577 38.6466 25.5085 38.7333 25.0918 38.9098L25.1201 38.8589L25.0692 38.8871C25.2456 38.4704 25.3323 38.0211 25.3238 37.5686C25.2797 36.8551 25.5197 36.1532 25.9914 35.6162L26.3592 35.2427L25.8499 35.3785C25.1482 35.5178 24.4199 35.3733 23.8244 34.9767C23.4372 34.7443 23.0054 34.5958 22.5571 34.541L22.608 34.5127H22.5684C22.9304 34.2407 23.2312 33.8956 23.451 33.4997C23.7683 32.86 24.3256 32.3718 25.0013 32.1415L25.5105 32.0057L25.0013 31.8699C24.3256 31.6395 23.7683 31.1513 23.451 30.5117C23.2312 30.1158 22.9304 29.7706 22.5684 29.4987H22.6306L22.5797 29.4704C23.028 29.4154 23.4597 29.2669 23.8471 29.0346C24.437 28.6297 25.1633 28.475 25.8669 28.6046L26.3761 28.7404L26.0084 28.3669C25.5367 27.8299 25.2966 27.128 25.3407 26.4145C25.3493 25.962 25.2625 25.5127 25.0861 25.0959L25.1371 25.1242L25.1088 25.0733C25.5255 25.2497 25.9746 25.3365 26.427 25.3279C27.1396 25.2823 27.8412 25.5203 28.379 25.9901L28.7524 26.3579L28.5997 25.8712C28.4604 25.1693 28.6048 24.4408 29.0014 23.8453C29.2337 23.4579 29.3821 23.026 29.437 22.5776L29.4653 22.6285V22.572C29.7372 22.9341 30.0823 23.2349 30.4781 23.4548C31.1176 23.7721 31.6057 24.3295 31.8359 25.0054L31.9944 25.5147L32.1302 25.0054C32.3604 24.3295 32.8485 23.7721 33.488 23.4548C33.8838 23.2349 34.2289 22.9341 34.5008 22.572V22.6342L34.5291 22.5833C34.584 23.0317 34.7324 23.4635 34.9647 23.8509C35.3676 24.4418 35.5202 25.1681 35.3891 25.8712L35.2533 26.3805L35.6267 26.0127C36.1636 25.5409 36.8654 25.3008 37.5787 25.3449C38.0311 25.3535 38.4802 25.2667 38.8969 25.0903L38.8686 25.1412L38.9196 25.1129C38.7432 25.5297 38.6564 25.9789 38.665 26.4315C38.7091 27.1449 38.469 27.8469 37.9973 28.3839L37.6296 28.7574L38.1388 28.6215C38.8405 28.4822 39.5688 28.6267 40.1643 29.0233C40.5516 29.2557 40.9834 29.4042 41.4317 29.4591L41.3807 29.4874H41.443C41.0809 29.7593 40.7802 30.1045 40.5603 30.5004C40.2431 31.14 39.6858 31.6282 39.0101 31.8585L38.5009 31.9944L39.0101 32.1302C39.6858 32.3605 40.2431 32.8487 40.5603 33.4884C40.7802 33.8843 41.0809 34.2294 41.443 34.5013H41.3581L41.409 34.5296C40.9607 34.5845 40.5289 34.733 40.1417 34.9654C39.5462 35.362 38.8179 35.5065 38.1162 35.3672L37.6069 35.2314L37.9747 35.6049C38.4464 36.1419 38.6864 36.8438 38.6423 37.5573C38.6338 38.0098 38.7205 38.459 38.8969 38.8758L38.846 38.8475L38.8743 38.8985C38.4576 38.722 38.0084 38.6353 37.556 38.6438C36.8427 38.6879 36.141 38.4479 35.6041 37.976L35.2307 37.6082L35.3891 38.1288C35.5283 38.8307 35.3839 39.5592 34.9874 40.1548C34.755 40.5422 34.6066 40.974 34.5517 41.4224L34.5234 41.3715V41.4337C34.2472 41.0677 33.8962 40.7649 33.4937 40.5453ZM24.7184 19.3519C25.2527 19.7709 25.8698 20.0718 26.5289 20.2347C27.1164 20.3972 27.6768 20.645 28.1923 20.9704C28.5144 21.196 28.7892 21.4825 29.0014 21.8136C29.0666 21.9524 29.1141 22.0988 29.1428 22.2494C29.1839 22.7692 29.0484 23.2876 28.7581 23.7207C28.4193 24.269 28.2482 24.9044 28.2658 25.5486C27.7171 25.2118 27.0819 25.0426 26.4384 25.062C25.9166 25.0919 25.4002 24.9443 24.973 24.6432C24.8569 24.5415 24.7543 24.4255 24.6675 24.298C24.4867 23.9455 24.3771 23.561 24.345 23.1662C24.3205 22.5582 24.3853 21.95 24.5373 21.3609C24.7241 20.7084 24.7704 20.0237 24.6731 19.3519L24.7297 19.4085L24.7184 19.3519ZM24.6392 39.023C24.5375 39.139 24.4216 39.2417 24.294 39.3286C23.9417 39.5094 23.5572 39.619 23.1625 39.6511C22.5547 39.6756 21.9466 39.6107 21.3576 39.4587C20.7052 39.2721 20.0207 39.2258 19.3491 39.3229L19.4057 39.2663H19.3321C19.751 38.7318 20.0518 38.1146 20.2147 37.4554C20.3771 36.8678 20.6249 36.3072 20.9503 35.7916C21.1819 35.4719 21.4741 35.2008 21.8102 34.9937C21.9479 34.9206 22.0943 34.8655 22.2459 34.8296C22.7656 34.7885 23.2839 34.924 23.7169 35.2144C24.2651 35.5532 24.9003 35.7244 25.5444 35.7067C25.2076 36.2556 25.0385 36.8909 25.0578 37.5346C25.093 38.0641 24.9452 38.5895 24.6392 39.023ZM21.6631 34.4957C21.2708 34.4741 20.8864 34.3761 20.5316 34.2071C19.9971 33.9214 19.5073 33.5591 19.0775 33.1318C18.5994 32.6372 18.0205 32.2512 17.3802 32C18.0204 31.7487 18.5993 31.3627 19.0775 30.8682C19.5111 30.442 20.0048 30.0817 20.5429 29.7986C20.8977 29.6296 21.2821 29.5316 21.6745 29.51C21.8266 29.5214 21.9768 29.5518 22.1214 29.6006C22.5918 29.8252 22.9726 30.2021 23.2021 30.6701C23.5117 31.2353 23.9798 31.6975 24.5486 32C23.9823 32.3073 23.5182 32.7735 23.2134 33.3412C22.9839 33.8093 22.6031 34.1862 22.1327 34.4108C21.9863 34.4601 21.8342 34.4905 21.6801 34.5013L21.6631 34.4957ZM22.2289 29.1478C22.0841 29.1178 21.9435 29.0703 21.8102 29.0064C21.4786 28.7925 21.1922 28.5156 20.9672 28.1914C20.6419 27.6759 20.3941 27.1153 20.2317 26.5277C20.068 25.8704 19.7672 25.2552 19.3491 24.7224H19.4226L19.3661 24.6658C20.0376 24.763 20.7222 24.7167 21.3746 24.53C21.9636 24.378 22.5717 24.3132 23.1794 24.3376C23.5741 24.3698 23.9587 24.4794 24.311 24.6602C24.4365 24.7474 24.5505 24.8501 24.6505 24.9658C24.9455 25.3952 25.087 25.9116 25.0522 26.4315C25.0329 27.0752 25.202 27.7105 25.5388 28.2594C24.8946 28.2417 24.2594 28.4129 23.7113 28.7517C23.2841 29.0528 22.7676 29.2004 22.2459 29.1705L22.2289 29.1478ZM24.096 19.018C24.4411 19.7198 24.2827 20.4837 24.096 21.2817C23.8202 22.2047 23.8202 23.1882 24.096 24.1112C23.1732 23.8354 22.1899 23.8354 21.2671 24.1112C20.458 24.281 19.6942 24.4395 19.004 24.1112C18.8359 24.0296 18.6766 23.931 18.5287 23.817C18.1243 23.318 17.8293 22.7396 17.663 22.1192C17.4875 21.3769 17.3908 20.6182 17.3745 19.8556C17.3066 18.6502 17.2387 17.5071 16.5315 16.5507C17.4877 17.2581 18.6305 17.326 19.8357 17.3939C20.5981 17.4101 21.3567 17.5069 22.0988 17.6825C22.719 17.8488 23.2973 18.1438 23.7961 18.5483C23.916 18.6956 24.0203 18.8549 24.1073 19.0237L24.096 19.018ZM18.6645 24.6771C19.3095 25.1129 19.5584 25.8542 19.7961 26.6352C20.0219 27.5886 20.526 28.4534 21.2445 29.1195C20.3067 29.3437 19.4551 29.8375 18.7946 30.54C18.1779 31.1059 17.5951 31.6095 16.82 31.6718C16.6319 31.6914 16.4423 31.6914 16.2542 31.6718C15.6502 31.4385 15.1026 31.0798 14.6474 30.6192C14.1295 30.0687 13.6707 29.4656 13.2782 28.8196C12.6162 27.8066 11.9882 26.8502 10.8906 26.3749C11.0206 26.3825 11.151 26.3825 11.281 26.3749C12.3074 26.2919 13.2999 25.9682 14.1778 25.4298C14.8396 25.0676 15.5374 24.7755 16.2599 24.5583C16.8862 24.3863 17.542 24.3497 18.1836 24.4508C18.3558 24.5188 18.5207 24.6042 18.6758 24.7054L18.6645 24.6771ZM16.2599 32.3565C16.448 32.337 16.6376 32.337 16.8257 32.3565C17.6065 32.4075 18.1836 32.9225 18.8003 33.4884C19.4629 34.1795 20.3121 34.6632 21.2445 34.8805C20.5433 35.5434 20.0515 36.3973 19.83 37.3366C19.5697 38.1232 19.3264 38.8589 18.6984 39.2946C18.5436 39.3979 18.3787 39.4851 18.2062 39.5549C17.5665 39.6552 16.9127 39.6185 16.2882 39.4474C15.5657 39.2302 14.8679 38.9381 14.2061 38.5759C13.1255 38.01 12.1014 37.5176 10.9246 37.6535C12.0165 37.1838 12.6219 36.2217 13.3065 35.2144C13.6989 34.5684 14.1578 33.9653 14.6757 33.4148C15.1237 32.9548 15.6635 32.5943 16.2599 32.3565ZM18.523 40.1774C18.671 40.0634 18.8303 39.9648 18.9983 39.8832C19.6999 39.5379 20.4637 39.6964 21.2614 39.8832C22.1842 40.159 23.1675 40.159 24.0904 39.8832C23.8145 40.8062 23.8145 41.7897 24.0904 42.7127C24.2601 43.522 24.4185 44.2859 24.0904 44.9763C24.0088 45.1444 23.9102 45.3037 23.7961 45.4517C23.2973 45.8562 22.719 46.1512 22.0988 46.3176C21.3567 46.4932 20.5981 46.5899 19.8357 46.6062C18.6305 46.6741 17.4877 46.742 16.5315 47.4494C17.2387 46.493 17.3066 45.3498 17.3745 44.1445C17.3908 43.3819 17.4875 42.6231 17.663 41.8808C17.8337 41.257 18.1345 40.6765 18.5457 40.1774H18.523ZM24.6618 44.6255C24.7589 43.9537 24.7126 43.2691 24.526 42.6165C24.374 42.0274 24.3092 41.4192 24.3336 40.8112C24.3658 40.4165 24.4754 40.0319 24.6561 39.6794C24.7434 39.5539 24.846 39.4398 24.9617 39.3399C25.391 39.0448 25.9073 38.9032 26.427 38.9381C27.0706 38.9574 27.7058 38.7883 28.2545 38.4514C28.2369 39.0957 28.408 39.731 28.7468 40.2793C29.037 40.7124 29.1726 41.2309 29.1315 41.7507C29.1011 41.9015 29.0516 42.048 28.9844 42.1864C28.7706 42.5181 28.4938 42.8046 28.1697 43.0296C27.6542 43.355 27.0937 43.6029 26.5063 43.7653C25.8491 43.9289 25.234 44.2297 24.7014 44.6481V44.5746L24.6618 44.6255ZM31.9944 17.4108C32.2457 18.0513 32.6316 18.6302 33.1259 19.1086C33.552 19.5423 33.9123 20.0361 34.1953 20.5743C34.3643 20.9292 34.4623 21.3136 34.4838 21.7061C34.4724 21.8583 34.442 22.0085 34.3933 22.1532C34.1687 22.6236 33.7919 23.0045 33.324 23.2341C32.7629 23.5362 32.3012 23.9941 31.9944 24.5526C31.6871 23.9862 31.221 23.522 30.6535 23.2171C30.1855 22.9875 29.8087 22.6067 29.5841 22.1362C29.5353 21.9916 29.5049 21.8414 29.4936 21.6891C29.5151 21.2967 29.6132 20.9122 29.7821 20.5573C30.0676 20.0144 30.4318 19.5167 30.8628 19.0803C31.3538 18.6102 31.7395 18.0411 31.9944 17.4108ZM46.5859 32C45.9457 32.2514 45.3668 32.6374 44.8886 33.1318C44.455 33.558 43.9613 33.9184 43.4232 34.2014C43.0684 34.3704 42.684 34.4685 42.2916 34.49C42.1395 34.4786 41.9893 34.4482 41.8447 34.3995C41.3743 34.1749 40.9935 33.798 40.764 33.3299C40.4605 32.768 40.0006 32.306 39.4401 32C40.0064 31.6927 40.4705 31.2265 40.7753 30.6588C41.0048 30.1907 41.3856 29.8139 41.856 29.5892C42.0006 29.5405 42.1508 29.51 42.303 29.4987C42.6953 29.5202 43.0797 29.6183 43.4345 29.7873C43.9773 30.0729 44.4749 30.4371 44.9112 30.8682C45.3894 31.3628 45.9682 31.7488 46.6086 32H46.535H46.5859ZM44.617 39.3116C43.9454 39.2144 43.2609 39.2607 42.6085 39.4474C42.0195 39.5994 41.4114 39.6642 40.8036 39.6398C40.4089 39.6076 40.0244 39.498 39.6721 39.3172C39.5466 39.23 39.4325 39.1273 39.3326 39.0117C39.0376 38.5822 38.896 38.0658 38.9309 37.5459C38.9502 36.9022 38.7811 36.2669 38.4443 35.7181C39.0884 35.7357 39.7237 35.5645 40.2718 35.2257C40.7048 34.9354 41.2231 34.7998 41.7428 34.8409C41.8937 34.8713 42.0401 34.9208 42.1785 34.988C42.5101 35.2019 42.7965 35.4788 43.0215 35.8029C43.3468 36.3185 43.5946 36.8791 43.757 37.4667C43.9207 38.124 44.2215 38.7392 44.6396 39.272H44.5661L44.617 39.3116ZM42.1785 29.0064C42.0398 29.0716 41.8934 29.1191 41.7428 29.1478C41.2231 29.189 40.7048 29.0534 40.2718 28.763C39.7237 28.4242 39.0884 28.253 38.4443 28.2707C38.7811 27.7218 38.9502 27.0865 38.9309 26.4428C38.901 25.9209 39.0485 25.4043 39.3496 24.9771C39.4512 24.861 39.5672 24.7583 39.6947 24.6715C40.047 24.4907 40.4316 24.3811 40.8263 24.3489C41.434 24.3245 42.0421 24.3893 42.6311 24.5413C43.2835 24.728 43.9681 24.7743 44.6396 24.6771L44.5831 24.7337H44.6566C44.2378 25.2682 43.9369 25.8854 43.774 26.5446C43.6116 27.1323 43.3638 27.6928 43.0385 28.2084C42.8068 28.5281 42.5146 28.7992 42.1785 29.0064ZM44.9735 24.1112C44.2719 24.4564 43.5081 24.298 42.7103 24.1112C41.7875 23.8354 40.8042 23.8354 39.8814 24.1112C40.1572 23.1882 40.1572 22.2047 39.8814 21.2817C39.7117 20.4724 39.5532 19.7084 39.8814 19.018C39.9629 18.8499 40.0615 18.6906 40.1756 18.5427C40.6744 18.1382 41.2527 17.8432 41.873 17.6768C42.6151 17.5013 43.3737 17.4045 44.1361 17.3882C45.3412 17.3203 46.4841 17.2524 47.4403 16.545C46.7331 17.5014 46.6652 18.6445 46.5973 19.8499C46.581 20.6125 46.4843 21.3713 46.3087 22.1136C46.1424 22.7339 45.8475 23.3124 45.4431 23.8113C45.2953 23.9273 45.1361 24.0278 44.9678 24.1112H44.9735ZM39.3156 19.3689C39.2185 20.0406 39.2648 20.7253 39.4514 21.3779C39.6034 21.967 39.6682 22.5752 39.6438 23.1831C39.6116 23.5779 39.502 23.9625 39.3213 24.315C39.234 24.4405 39.1314 24.5545 39.0158 24.6545C38.5864 24.9496 38.0701 25.0912 37.5504 25.0563C36.9068 25.037 36.2716 25.2061 35.7229 25.543C35.7405 24.8987 35.5694 24.2633 35.2307 23.7151C34.9404 23.282 34.8048 22.7635 34.8459 22.2437C34.875 22.095 34.9225 21.9506 34.9874 21.8136C35.2012 21.482 35.478 21.1955 35.8021 20.9704C36.3176 20.645 36.878 20.3972 37.4655 20.2347C38.1227 20.0712 38.7378 19.7703 39.2704 19.3519V19.4255L39.3156 19.3689ZM39.8814 44.9763C39.5363 44.2746 39.6947 43.5106 39.8814 42.7127C40.1572 41.7897 40.1572 40.8062 39.8814 39.8832C40.8042 40.159 41.7875 40.159 42.7103 39.8832C43.5194 39.7134 44.2832 39.5549 44.9735 39.8832C45.1415 39.9647 45.3008 40.0633 45.4487 40.1774C45.8531 40.6763 46.1481 41.2548 46.3144 41.8752C46.4899 42.6174 46.5867 43.3762 46.6029 44.1388C46.6708 45.3442 46.7387 46.4873 47.4459 47.4437C46.4898 46.7363 45.3469 46.6684 44.1418 46.6005C43.3793 46.5842 42.6207 46.4875 41.8786 46.3119C41.2584 46.1456 40.6801 45.8506 40.1813 45.4461C40.0656 45.3001 39.9651 45.1427 39.8814 44.9763ZM45.3129 39.3172C44.6679 38.8815 44.419 38.1401 44.1814 37.3592C43.9577 36.4091 43.4576 35.5466 42.7443 34.8805C43.682 34.6563 44.5336 34.1626 45.1941 33.4601C45.8108 32.8942 46.3936 32.3905 47.1687 32.3282C47.3568 32.3087 47.5464 32.3087 47.7345 32.3282C48.3385 32.5615 48.8862 32.9203 49.3413 33.3808C49.8592 33.9313 50.3181 34.5345 50.7105 35.1804C51.3725 36.1934 52.0005 37.1498 53.0925 37.6195C51.91 37.4837 50.8859 37.9987 49.8109 38.5419C49.1491 38.9042 48.4513 39.1962 47.7288 39.4134C47.1025 39.5854 46.4468 39.622 45.8052 39.521C45.634 39.4619 45.4691 39.3861 45.3129 39.2946V39.3172ZM47.7345 31.6605C47.5464 31.68 47.3568 31.68 47.1687 31.6605C46.3879 31.6095 45.8108 31.0946 45.1941 30.5287C44.5321 29.8303 43.6807 29.3406 42.7443 29.1195C43.4455 28.4566 43.9372 27.6028 44.1587 26.6635C44.419 25.8769 44.6623 25.1412 45.2903 24.7054C45.4451 24.6021 45.61 24.5149 45.7825 24.4451C46.4223 24.3449 47.076 24.3815 47.7005 24.5526C48.423 24.7698 49.1208 25.0619 49.7826 25.4241C50.6697 25.9561 51.6702 26.2703 52.7021 26.3409C52.8321 26.3484 52.9624 26.3484 53.0925 26.3409C52.0005 26.8106 51.3951 27.7727 50.7049 28.7856C50.3124 29.4316 49.8535 30.0348 49.3357 30.5852C48.8811 31.0479 48.3333 31.4086 47.7288 31.6435L47.7345 31.6605ZM49.8562 15.4075L50.2296 15.3057C50.4552 15.2563 50.684 15.2223 50.9142 15.2038C53.3046 17.6948 55.0523 20.7307 56.0063 24.049C55.8852 24.2252 55.7529 24.3934 55.6102 24.5526C55.5084 24.6488 55.4009 24.7507 55.2877 24.8752C54.7228 25.4032 54.021 25.7621 53.2622 25.9108C52.1306 26.1372 51.0839 25.6166 49.992 25.0676C48.9286 24.4304 47.7272 24.0596 46.4898 23.9867C46.2721 23.9873 46.0547 24.0024 45.8391 24.032C46.8575 22.7134 46.9424 21.2364 47.0159 19.9122C47.0838 18.6955 47.1517 17.541 47.9212 16.6582C48.43 16.0587 49.0994 15.617 49.8505 15.3849L49.8562 15.4075ZM38.1048 10.7218C38.2548 9.95759 38.6176 9.25135 39.1515 8.68451C39.2477 8.59396 39.3382 8.50342 39.4231 8.41287C39.6015 8.2566 39.7906 8.1129 39.9889 7.98278C43.3065 8.93691 46.3417 10.685 48.8321 13.076C48.8155 13.289 48.7853 13.5007 48.7416 13.7098C48.702 13.84 48.6624 13.9871 48.6228 14.1455C48.3972 14.8867 47.9679 15.5496 47.3837 16.0583C46.5011 16.828 45.3469 16.8959 44.1304 16.9638C42.8122 17.0373 41.3298 17.1222 40.0115 18.1409C40.2322 16.4884 39.5702 15.1642 38.9705 13.9871C38.399 12.9005 37.8842 11.8706 38.1048 10.7218ZM38.5688 14.1852C38.9309 14.8471 39.2229 15.5451 39.4401 16.2677C39.612 16.8942 39.6486 17.5501 39.5476 18.1918C39.4777 18.3643 39.3905 18.5293 39.2873 18.6841C38.8517 19.3293 38.1105 19.5783 37.3297 19.816C36.3886 20.0423 35.5348 20.5401 34.8742 21.2477C34.6501 20.3098 34.1564 19.458 33.4541 18.7973C32.8883 18.1805 32.3848 17.5976 32.3225 16.8223C32.3029 16.6342 32.3029 16.4445 32.3225 16.2564C32.5557 15.6522 32.9144 15.1045 33.3749 14.6492C33.9252 14.1312 34.5282 13.6722 35.1741 13.2797C36.1868 12.6176 37.143 11.9894 37.6126 10.8972C37.5108 12.08 38.0256 13.1043 38.5688 14.1852ZM26.5402 8.23178C26.5798 8.10728 26.6138 7.98278 26.642 7.85828C26.7139 7.63567 26.8008 7.41823 26.9023 7.20748C30.2468 6.38185 33.7419 6.38185 37.0864 7.20748C37.1772 7.39107 37.2565 7.58006 37.3241 7.77339C37.3523 7.90921 37.392 8.05069 37.4429 8.20915C37.6151 8.96001 37.5739 9.74408 37.3241 10.4728C36.945 11.6046 35.9775 12.2158 34.9591 12.8836C33.8275 13.6079 32.6167 14.4228 31.983 15.9621C31.3494 14.4228 30.1103 13.6079 29.007 12.8836C27.9886 12.2158 27.0211 11.582 26.642 10.4728C26.4021 9.74948 26.3668 8.97388 26.5402 8.23178ZM26.3365 10.8972C26.8061 11.9894 27.768 12.595 28.7751 13.2797C29.4209 13.6722 30.0239 14.1312 30.5742 14.6492C31.0368 15.1039 31.3974 15.6517 31.6323 16.2564C31.6518 16.4445 31.6518 16.6342 31.6323 16.8223C31.5813 17.6033 31.0665 18.1805 30.5007 18.7973C29.8108 19.4624 29.3292 20.3137 29.1145 21.2477C28.4517 20.5464 27.5981 20.0545 26.659 19.8329C25.8726 19.5726 25.1371 19.3293 24.7014 18.7011C24.5981 18.5463 24.5109 18.3813 24.4411 18.2088C24.3409 17.5689 24.3775 16.915 24.5486 16.2903C24.7658 15.5677 25.0578 14.8697 25.4199 14.2078C25.9631 13.1043 26.478 12.08 26.3365 10.8972ZM15.3829 14.1399C15.3546 14.0154 15.3207 13.8852 15.2811 13.7664C15.2318 13.5407 15.1978 13.3119 15.1792 13.0816C17.6697 10.6907 20.7049 8.94257 24.0225 7.98844C24.1986 8.10956 24.3668 8.24188 24.526 8.38458C24.6222 8.48644 24.724 8.59396 24.8485 8.70715C25.3764 9.27221 25.7352 9.97416 25.8839 10.7331C26.1102 11.8649 25.5897 12.9119 25.0409 14.0041C24.4468 15.1868 23.7792 16.5054 23.9998 18.1579C22.6816 17.1392 21.2049 17.0543 19.8809 16.9808C18.6645 16.9128 17.5103 16.8449 16.6277 16.0753C16.0378 15.5611 15.6062 14.8899 15.3829 14.1399ZM8.68404 24.8413C8.59352 24.745 8.50299 24.6432 8.40681 24.564C8.25056 24.3855 8.10688 24.1964 7.97681 23.998C8.93073 20.6797 10.6785 17.6438 13.0689 15.1529C13.2818 15.1695 13.4935 15.1997 13.7026 15.2434C13.8327 15.283 13.9798 15.3226 14.1382 15.3623C14.8792 15.5878 15.5419 16.0173 16.0506 16.6016C16.82 17.4844 16.8879 18.6389 16.9558 19.8556C17.0294 21.1742 17.1142 22.6568 18.1326 23.9754C16.4806 23.7547 15.1566 24.4168 13.9798 25.0167C12.8878 25.5826 11.8581 26.0863 10.7096 25.8599C9.95261 25.716 9.251 25.3631 8.68404 24.8413ZM8.23142 37.4554L7.858 37.3535C7.63544 37.2817 7.41805 37.1947 7.20735 37.0932C6.38189 33.7479 6.38189 30.2521 7.20735 26.9068C7.39089 26.8161 7.57984 26.7367 7.77313 26.6691C7.90892 26.6408 8.05036 26.6012 8.20878 26.5503C8.95949 26.3781 9.74338 26.4192 10.4719 26.6691C11.6035 27.0483 12.2145 28.016 12.8822 29.0346C13.6064 30.1665 14.4211 31.3775 15.96 32.0113C14.4211 32.6452 13.6064 33.8845 12.8822 34.988C12.2145 36.0067 11.5809 36.9744 10.4719 37.3535C9.74878 37.5935 8.97335 37.6288 8.23142 37.4554ZM14.1382 48.6152L13.7648 48.717C13.5391 48.7664 13.3104 48.8004 13.0802 48.8189C10.6898 46.3279 8.94205 43.292 7.98813 39.9737C8.10924 39.7975 8.24152 39.6293 8.38418 39.47C8.48602 39.3738 8.59352 39.272 8.70667 39.1475C9.27162 38.6194 9.97341 38.2606 10.7322 38.1119C11.8638 37.8855 12.9105 38.4061 14.0024 38.9551C15.1849 39.5493 16.5032 40.217 18.1553 39.9963C17.1369 41.3149 17.052 42.7919 16.9784 44.1162C16.9105 45.3329 16.8427 46.4873 16.0732 47.3702C15.5591 47.9601 14.8881 48.3918 14.1382 48.6152ZM25.8839 53.2783C25.734 54.0425 25.3711 54.7487 24.8372 55.3155C24.741 55.4061 24.6505 55.4966 24.5656 55.5872C24.3872 55.7435 24.1982 55.8872 23.9998 56.0173C20.6823 55.0631 17.647 53.315 15.1566 50.9241C15.1732 50.7111 15.2034 50.4994 15.2471 50.2902C15.2867 50.1601 15.3264 50.013 15.366 49.8545C15.5915 49.1133 16.0209 48.4505 16.605 47.9417C17.4876 47.1721 18.6419 47.1042 19.8583 47.0363C21.1766 46.9627 22.6589 46.8778 23.9772 45.8592C23.7565 47.5116 24.4185 48.8359 25.0182 50.013C25.5897 51.0995 26.1045 52.1295 25.8839 53.2783ZM25.4199 49.8149C25.0579 49.1529 24.7658 48.4549 24.5486 47.7323C24.3767 47.1059 24.3401 46.45 24.4411 45.8082C24.5109 45.6357 24.5982 45.4707 24.7014 45.3159C25.1371 44.6708 25.8782 44.4218 26.659 44.1841C27.6001 43.9578 28.4539 43.4599 29.1145 42.7523C29.3387 43.6902 29.8323 44.5421 30.5346 45.2027C31.1004 45.8196 31.604 46.4024 31.6662 47.1777C31.6858 47.3659 31.6858 47.5555 31.6662 47.7436C31.433 48.3478 31.0743 48.8956 30.6139 49.3508C30.0635 49.8688 29.4605 50.3278 28.8147 50.7203C27.8019 51.3825 26.8457 52.0106 26.3761 53.1028C26.478 51.9201 25.9631 50.8958 25.4199 49.8149ZM37.4485 55.7683C37.4089 55.8928 37.375 56.0173 37.3467 56.1418C37.2749 56.3644 37.1879 56.5818 37.0864 56.7926C33.7419 57.6182 30.2468 57.6182 26.9023 56.7926C26.8116 56.609 26.7322 56.42 26.6647 56.2266C26.6364 56.0908 26.5968 55.9494 26.5459 55.7909C26.3737 55.04 26.4148 54.256 26.6647 53.5273C27.0438 52.3954 28.0112 51.7842 29.0297 51.1165C30.1612 50.3921 31.372 49.5772 32.0057 48.0379C32.6394 49.5772 33.8784 50.3921 34.9817 51.1165C36.0001 51.7842 36.9676 52.4181 37.3467 53.5273C37.5866 54.2506 37.6219 55.0262 37.4485 55.7683ZM37.6522 53.1028C37.1826 52.0106 36.2208 51.4051 35.2137 50.7203C34.5678 50.3278 33.9648 49.8688 33.4145 49.3508C32.952 48.8961 32.5913 48.3483 32.3565 47.7436C32.3369 47.5555 32.3369 47.3659 32.3565 47.1777C32.4074 46.3968 32.9223 45.8196 33.488 45.2027C34.1779 44.5377 34.6595 43.6863 34.8742 42.7523C35.537 43.4537 36.3906 43.9455 37.3297 44.1671C38.1162 44.4274 38.8517 44.6708 39.2873 45.2989C39.3906 45.4537 39.4778 45.6187 39.5476 45.7913C39.6478 46.4311 39.6112 47.085 39.4401 47.7097C39.2229 48.4323 38.9309 49.1303 38.5688 49.7922C38.0256 50.8958 37.5108 51.9201 37.6522 53.1028ZM48.6058 49.8602C48.6341 49.9847 48.668 50.1148 48.7076 50.2337C48.7569 50.4594 48.791 50.6881 48.8095 50.9184C46.3191 53.3093 43.2838 55.0575 39.9663 56.0116C39.7901 55.8905 39.6219 55.7582 39.4627 55.6155C39.3665 55.5136 39.2647 55.4061 39.1402 55.2929C38.6123 54.7278 38.2536 54.0259 38.1048 53.2669C37.8785 52.1351 38.399 51.0882 38.9479 49.996C39.5419 48.8132 40.2096 47.4946 39.9889 45.8422C41.3072 46.8608 42.7839 46.9457 44.1078 47.0193C45.3243 47.0872 46.4785 47.1551 47.3611 47.9247C47.9509 48.4389 48.3825 49.1101 48.6058 49.8602ZM55.3047 39.1588C55.3952 39.255 55.4857 39.3455 55.5763 39.4304C55.7325 39.6089 55.8762 39.798 56.0063 39.9963C55.0523 43.3146 53.3046 46.3506 50.9142 48.8415C50.7013 48.8249 50.4896 48.7947 50.2805 48.751C50.1504 48.7114 50.0033 48.6717 49.8449 48.6321C49.1038 48.4065 48.4412 47.9771 47.9325 47.3928C47.163 46.51 47.0952 45.3555 47.0273 44.1388C46.9537 42.8202 46.8688 41.3375 45.8504 40.019C47.5025 40.2397 48.8265 39.5776 50.0033 38.9777C51.0953 38.4118 52.125 37.9081 53.2735 38.1345C54.0331 38.279 54.7368 38.6339 55.3047 39.1588ZM56.7814 37.0932C56.5978 37.184 56.4089 37.2634 56.2156 37.3309C56.0798 37.3592 55.9384 37.3988 55.7799 37.4497C55.0292 37.622 54.2454 37.5808 53.5168 37.3309C52.3852 36.9517 51.7742 35.984 51.1066 34.9654C50.3824 33.8336 49.5676 32.6225 48.0287 31.9887C49.5676 31.3549 50.3824 30.1155 51.1066 29.012C51.7742 27.9934 52.4079 27.0257 53.5168 26.6465C54.2459 26.3985 55.0298 26.3593 55.7799 26.5333L56.1534 26.6352C56.3737 26.7036 56.5892 26.7868 56.7984 26.8842C57.622 30.238 57.6161 33.7421 56.7814 37.0932Z" fill="black"/>
</svg>
