<svg width="48" height="48" viewBox="0 0 48 48" fill="none" xmlns="http://www.w3.org/2000/svg">
<circle cx="24" cy="24" r="24" fill="black"/>
<path d="M32.6802 26.0233L37.5428 27.607C37.894 27.722 38.0828 28.0925 37.9649 28.4351C36.989 31.2867 35.1287 33.6786 32.7398 35.3571C30.3521 37.0346 27.4371 38 24.3524 38C20.3893 38 16.8026 36.4319 14.2044 33.8994C11.6073 31.3659 10 27.8649 10 24C10 20.134 11.6063 16.6351 14.2044 14.1006C16.8015 11.5671 20.3893 10 24.3524 10C26.1681 10 27.9461 10.3337 29.6039 10.9699C31.09 11.5402 32.479 12.3538 33.711 13.3884L34.8219 12.3047C35.0851 12.048 35.5096 12.048 35.7727 12.3047C35.9043 12.433 35.9695 12.6004 35.9695 12.7678V19.2744C35.9695 19.6371 35.6686 19.9307 35.2967 19.9307H28.6268C28.255 19.9307 27.9541 19.6371 27.9541 19.2744C27.9541 19.0903 28.0319 18.9228 28.1577 18.8034L29.113 17.8715C28.5227 17.434 27.8786 17.0825 27.199 16.8257C26.3054 16.4887 25.3432 16.3123 24.3524 16.3123C22.1764 16.3123 20.2063 17.1728 18.7797 18.5635C17.3541 19.9541 16.472 21.876 16.472 23.9997C16.472 26.1225 17.3541 28.0443 18.7797 29.436C20.2052 30.8267 22.1754 31.6871 24.3524 31.6871C26.0514 31.6871 27.6521 31.1581 28.9607 30.2396C30.273 29.3177 31.2947 28.0052 31.8313 26.4382C31.9491 26.0955 32.3289 25.9114 32.6802 26.0263L32.6802 26.0233Z" fill="white"/>
</svg>
