<svg width="48" height="48" viewBox="0 0 48 48" fill="none" xmlns="http://www.w3.org/2000/svg">
<circle cx="24" cy="24" r="24" fill="black"/>
<path d="M18.3519 20.0479C17.8828 19.5788 17.8828 18.8194 18.3519 18.3514C18.8211 17.8823 19.5805 17.8823 20.0485 18.3514L22.8003 21.1031V13.2003C22.8003 12.5366 23.3369 12 24.0007 12C24.6644 12 25.2011 12.5366 25.2011 13.2003V21.1031L27.9529 18.3514C28.422 17.8823 29.1814 17.8823 29.6494 18.3514C30.1185 18.8206 30.1185 19.5799 29.6494 20.0479L24.8489 24.8481C24.6149 25.0832 24.3078 25.2002 24.0007 25.2002C23.6935 25.2002 23.3864 25.0833 23.1524 24.8481L18.3519 20.0479ZM32.4011 28.8002H15.6001C13.6144 28.8002 12 30.4146 12 32.4001C12 34.3857 13.6144 36 15.6001 36H32.3999C34.3856 36 36 34.3857 36 32.4001C36.0011 30.4146 34.3856 28.8002 32.4011 28.8002Z" fill="#E9E9E9"/>
</svg>
